<svg width="32" height="32" viewBox="0 0 32 32" xmlns="http://www.w3.org/2000/svg">
  <defs>
    <linearGradient id="iconGradient" x1="0%" y1="0%" x2="100%" y2="100%">
      <stop offset="0%" style="stop-color:#0ea5e9;stop-opacity:1" />
      <stop offset="100%" style="stop-color:#d946ef;stop-opacity:1" />
    </linearGradient>
  </defs>
  
  <!-- Background circle -->
  <circle cx="16" cy="16" r="15" fill="url(#iconGradient)"/>
  
  <!-- Road -->
  <path d="M 6 20 Q 12 16, 18 18 Q 24 20, 26 16" stroke="#ffffff" stroke-width="2.5" fill="none" stroke-linecap="round"/>
  
  <!-- Road line -->
  <path d="M 8 19.5 L 10 18.5" stroke="#fbbf24" stroke-width="1" stroke-linecap="round"/>
  <path d="M 15 17.8 L 17 18.2" stroke="#fbbf24" stroke-width="1" stroke-linecap="round"/>
  <path d="M 22 18.5 L 24 17.5" stroke="#fbbf24" stroke-width="1" stroke-linecap="round"/>
  
  <!-- Car -->
  <g transform="translate(20, 16.5) rotate(-5) scale(0.7)">
    <rect x="-4" y="-2" width="8" height="4" rx="1.5" fill="#ffffff"/>
    <circle cx="-2.5" cy="2.5" r="1" fill="#374151"/>
    <circle cx="2.5" cy="2.5" r="1" fill="#374151"/>
    <circle cx="4" cy="0" r="0.5" fill="#fbbf24"/>
  </g>
  
  <!-- Location pin -->
  <g transform="translate(10, 8) scale(0.6)">
    <circle cx="0" cy="3" r="3" fill="#ffffff"/>
    <circle cx="0" cy="3" r="1.5" fill="#dc2626"/>
    <path d="M 0 0 L -2.5 3 L 2.5 3 Z" fill="#ffffff"/>
  </g>
</svg>